<svg width="59" height="59" viewBox="0 0 59 59" fill="none" xmlns="http://www.w3.org/2000/svg">
<g id="laptop-02">
<path id="Icon" d="M51.2487 39.166V17.8993C51.2487 15.1924 51.2487 13.839 50.7219 12.8051C50.2585 11.8956 49.5191 11.1562 48.6097 10.6928C47.5757 10.166 46.2223 10.166 43.5154 10.166H15.482C12.7751 10.166 11.4217 10.166 10.3877 10.6928C9.47829 11.1562 8.73889 11.8956 8.2755 12.8051C7.7487 13.839 7.7487 15.1924 7.7487 17.8993V39.166M11.7765 48.8327H47.2209C48.7192 48.8327 49.4684 48.8327 50.083 48.668C51.7509 48.2211 53.0538 46.9183 53.5007 45.2503C53.6654 44.6357 53.6654 43.8865 53.6654 42.3882C53.6654 41.6391 53.6654 41.2645 53.583 40.9572C53.3596 40.1232 52.7082 39.4718 51.8742 39.2484C51.5669 39.166 51.1923 39.166 50.4431 39.166H8.55425C7.80511 39.166 7.43054 39.166 7.12322 39.2484C6.28925 39.4718 5.63784 40.1232 5.41438 40.9572C5.33203 41.2645 5.33203 41.6391 5.33203 42.3882C5.33203 43.8865 5.33203 44.6357 5.49672 45.2503C5.94365 46.9183 7.24646 48.2211 8.91441 48.668C9.52904 48.8327 10.2782 48.8327 11.7765 48.8327Z" stroke="#053AF9" stroke-width="1.5" stroke-linecap="round" stroke-linejoin="round"/>
</g>
</svg>
