<svg width="59" height="58" viewBox="0 0 59 58" fill="none" xmlns="http://www.w3.org/2000/svg">
<g id="credit-card-01">
<path id="Icon" d="M53.6615 24.1673H5.32812M5.32813 19.8173L5.32813 38.184C5.32813 40.8909 5.32813 42.2444 5.85493 43.2783C6.31831 44.1877 7.05772 44.9271 7.96717 45.3905C9.00108 45.9173 10.3545 45.9173 13.0615 45.9173L45.9281 45.9173C48.635 45.9173 49.9885 45.9173 51.0224 45.3905C51.9319 44.9271 52.6713 44.1877 53.1347 43.2783C53.6615 42.2444 53.6615 40.8909 53.6615 38.184V19.8173C53.6615 17.1104 53.6615 15.7569 53.1347 14.723C52.6713 13.8136 51.9319 13.0742 51.0224 12.6108C49.9885 12.084 48.635 12.084 45.9281 12.084L13.0615 12.084C10.3545 12.084 9.00108 12.084 7.96717 12.6108C7.05772 13.0742 6.31832 13.8136 5.85493 14.723C5.32813 15.7569 5.32813 17.1104 5.32813 19.8173Z" stroke="#053AF9" stroke-width="1.5" stroke-linecap="round" stroke-linejoin="round"/>
</g>
</svg>
