<svg width="59" height="59" viewBox="0 0 59 59" fill="none" xmlns="http://www.w3.org/2000/svg">
<g id="Heart 1">
<path id="Vector" fill-rule="evenodd" clip-rule="evenodd" d="M28.9218 50.8967C23.6761 47.6683 18.7962 43.8685 14.3693 39.5659C11.257 36.467 8.88762 32.6895 7.44267 28.5222C4.84244 20.4383 7.87968 11.1837 16.3796 8.44485C20.8467 7.00671 25.7255 7.82867 29.4899 10.6536C33.2556 7.83212 38.1329 7.01046 42.6003 8.44485C51.1002 11.1837 54.1593 20.4383 51.5589 28.5222C50.114 32.6895 47.7447 36.467 44.6323 39.5659C40.2054 43.8685 35.3254 47.6683 30.0798 50.8967L29.5117 51.25L28.9218 50.8967Z" stroke="#053AF9" stroke-width="1.5" stroke-linecap="round" stroke-linejoin="round"/>
<path id="Vector_2" d="M38.5371 17.5449C41.1116 18.3673 42.9408 20.6786 43.1694 23.398" stroke="#053AF9" stroke-width="1.5" stroke-linecap="round" stroke-linejoin="round"/>
</g>
</svg>
