<svg width="16" height="16" viewBox="0 0 16 16" fill="none" xmlns="http://www.w3.org/2000/svg">
<g id="credit-card-02">
<path id="Icon" d="M14.6654 6.66732H1.33203M7.33203 9.33398H3.9987M1.33203 5.46732L1.33203 10.534C1.33203 11.2807 1.33203 11.6541 1.47736 11.9393C1.60519 12.1902 1.80916 12.3942 2.06004 12.522C2.34526 12.6673 2.71863 12.6673 3.46536 12.6673L12.532 12.6673C13.2788 12.6673 13.6521 12.6673 13.9374 12.522C14.1882 12.3942 14.3922 12.1902 14.52 11.9393C14.6654 11.6541 14.6654 11.2807 14.6654 10.534V5.46732C14.6654 4.72058 14.6654 4.34721 14.52 4.062C14.3922 3.81112 14.1882 3.60714 13.9374 3.47931C13.6521 3.33399 13.2788 3.33399 12.532 3.33399L3.46537 3.33398C2.71863 3.33398 2.34526 3.33398 2.06004 3.47931C1.80916 3.60714 1.60519 3.81111 1.47736 4.062C1.33203 4.34721 1.33203 4.72058 1.33203 5.46732Z" stroke="#4C5361" stroke-width="1.5" stroke-linecap="round" stroke-linejoin="round"/>
</g>
</svg>
