<svg width="59" height="58" viewBox="0 0 59 58" fill="none" xmlns="http://www.w3.org/2000/svg">
<g id="message-chat-circle">
<path id="Icon" d="M15.2267 27.1364C15.0765 26.1684 14.9986 25.1766 14.9986 24.1668C14.9986 13.4893 23.7114 4.8335 34.4591 4.8335C45.2069 4.8335 53.9197 13.4893 53.9197 24.1668C53.9197 26.5788 53.4751 28.8877 52.6628 31.0169C52.4941 31.4591 52.4098 31.6802 52.3715 31.8528C52.3335 32.0239 52.3189 32.1442 52.3148 32.3193C52.3106 32.4961 52.3346 32.6908 52.3825 33.0803L53.3554 40.9833C53.4607 41.8388 53.5134 42.2665 53.3711 42.5775C53.2464 42.85 53.0249 43.0664 52.7497 43.1848C52.4355 43.3199 52.009 43.2574 51.1562 43.1324L43.4585 42.004C43.0566 41.9451 42.8555 41.9157 42.6725 41.9167C42.4915 41.9177 42.3662 41.9311 42.189 41.9684C42.0099 42.006 41.781 42.0917 41.3234 42.2631C39.1887 43.0627 36.8754 43.5002 34.4591 43.5002C33.4485 43.5002 32.4559 43.4236 31.4868 43.2761M18.9417 53.1668C26.1068 53.1668 31.9154 47.2159 31.9154 39.8752C31.9154 32.5344 26.1068 26.5835 18.9417 26.5835C11.7765 26.5835 5.968 32.5344 5.968 39.8752C5.968 41.3508 6.2027 42.7702 6.63594 44.0964C6.81908 44.657 6.91065 44.9374 6.9407 45.1288C6.97208 45.3288 6.97758 45.441 6.96589 45.6431C6.9547 45.8366 6.90628 46.0553 6.80945 46.4927L5.33203 53.1668L12.5695 52.1784C12.9645 52.1245 13.162 52.0975 13.3345 52.0987C13.5161 52.0999 13.6125 52.1097 13.7906 52.1452C13.9598 52.179 14.2113 52.2677 14.7142 52.4452C16.0393 52.9129 17.4615 53.1668 18.9417 53.1668Z" stroke="#053AF9" stroke-width="1.5" stroke-linecap="round" stroke-linejoin="round"/>
</g>
</svg>
