<svg width="19" height="18" viewBox="0 0 19 18" fill="none" xmlns="http://www.w3.org/2000/svg">
<g id="check-verified-02">
<path id="Icon" d="M7.25 9L8.75 10.5L12.125 7.125M13.9259 3.74888C14.0803 4.1224 14.3768 4.4193 14.75 4.5743L16.0589 5.11648C16.4325 5.27121 16.7292 5.568 16.884 5.94154C17.0387 6.31509 17.0387 6.73481 16.884 7.10836L16.3422 8.41635C16.1874 8.79007 16.1872 9.21021 16.3427 9.58374L16.8835 10.8913C16.9602 11.0764 16.9997 11.2747 16.9997 11.475C16.9998 11.6752 16.9603 11.8736 16.8837 12.0586C16.8071 12.2436 16.6947 12.4118 16.5531 12.5534C16.4114 12.695 16.2433 12.8073 16.0582 12.8839L14.7503 13.4256C14.3768 13.5801 14.0799 13.8765 13.9249 14.2498L13.3827 15.5588C13.228 15.9323 12.9312 16.2291 12.5577 16.3838C12.1841 16.5386 11.7644 16.5386 11.3909 16.3838L10.083 15.842C9.70942 15.6877 9.28987 15.688 8.91656 15.8429L7.60767 16.3843C7.23434 16.5387 6.81501 16.5386 6.44178 16.384C6.06855 16.2293 5.77194 15.9329 5.61711 15.5598L5.07479 14.2504C4.92035 13.8769 4.62391 13.58 4.25064 13.425L2.94175 12.8828C2.56838 12.7282 2.27169 12.4316 2.11691 12.0582C1.96213 11.6849 1.96192 11.2654 2.11633 10.8919L2.6581 9.58391C2.81244 9.21035 2.81213 8.79079 2.65722 8.41746L2.11623 7.10759C2.03953 6.92257 2.00003 6.72426 2 6.52397C1.99997 6.32369 2.0394 6.12536 2.11604 5.94032C2.19268 5.75529 2.30504 5.58716 2.44668 5.44556C2.58832 5.30396 2.75647 5.19166 2.94152 5.11508L4.24947 4.57329C4.62265 4.41898 4.91936 4.1229 5.07448 3.75004L5.61664 2.44111C5.77136 2.06756 6.06813 1.77078 6.44167 1.61605C6.8152 1.46132 7.2349 1.46132 7.60844 1.61605L8.91638 2.15784C9.28993 2.31218 9.70948 2.31187 10.0828 2.15696L11.3922 1.61689C11.7657 1.46224 12.1853 1.46228 12.5588 1.61697C12.9322 1.77167 13.229 2.06837 13.3837 2.44182L13.926 3.75115L13.9259 3.74888Z" stroke="#4C5361" stroke-width="1.66667" stroke-linecap="round" stroke-linejoin="round"/>
</g>
</svg>
