<svg width="59" height="59" viewBox="0 0 59 59" fill="none" xmlns="http://www.w3.org/2000/svg">
<g id="flag-05">
<path id="Icon" d="M34.601 16.7446H49.1717C50.2527 16.7446 50.7932 16.7446 51.1093 16.9719C51.3851 17.1701 51.5646 17.4754 51.604 17.8127C51.6492 18.1994 51.3867 18.6719 50.8618 19.6168L47.3103 26.0094C47.12 26.3521 47.0248 26.5234 46.9875 26.7049C46.9544 26.8655 46.9544 27.0311 46.9875 27.1917C47.0248 27.3732 47.12 27.5445 47.3103 27.8872L50.8618 34.2798C51.3867 35.2247 51.6492 35.6972 51.604 36.0838C51.5646 36.4212 51.3851 36.7264 51.1093 36.9247C50.7932 37.152 50.2527 37.152 49.1717 37.152H30.8149C29.4614 37.152 28.7847 37.152 28.2677 36.8886C27.813 36.6569 27.4433 36.2872 27.2116 35.8325C26.9482 35.3155 26.9482 34.6388 26.9482 33.2853V26.9483M18.02 52.4582L7.81627 11.6434M11.6428 26.9484H30.7343C32.0878 26.9484 32.7645 26.9484 33.2815 26.685C33.7362 26.4533 34.1059 26.0836 34.3376 25.6289C34.601 25.1119 34.601 24.4352 34.601 23.0818V10.4077C34.601 9.05422 34.601 8.37749 34.3376 7.86054C34.1059 7.40581 33.7362 7.03611 33.2815 6.80442C32.7645 6.54102 32.0878 6.54102 30.7343 6.54102H11.4931C9.805 6.54102 8.96096 6.54102 8.38366 6.89079C7.87768 7.19736 7.50173 7.67887 7.32704 8.24409C7.12773 8.88899 7.33245 9.70783 7.74189 11.3455L11.6428 26.9484Z" stroke="#053AF9" stroke-width="1.5" stroke-linecap="round" stroke-linejoin="round"/>
</g>
</svg>
