<svg width="17" height="16" viewBox="0 0 17 16" fill="none" xmlns="http://www.w3.org/2000/svg">
<g id="edit-01">
<path id="Icon" d="M2.41866 12.0786C2.44929 11.8029 2.46461 11.6651 2.50631 11.5363C2.54331 11.422 2.59559 11.3132 2.66173 11.2129C2.73627 11.0999 2.83433 11.0018 3.03045 10.8057L11.8347 2.0015C12.571 1.26512 13.7649 1.26512 14.5013 2.0015C15.2377 2.73788 15.2377 3.93179 14.5013 4.66817L5.69712 13.4724C5.501 13.6685 5.40294 13.7665 5.28989 13.8411C5.1896 13.9072 5.08083 13.9595 4.96653 13.9965C4.8377 14.0382 4.69987 14.0535 4.42421 14.0841L2.16797 14.3348L2.41866 12.0786Z" stroke="#4C5361" stroke-width="1.5" stroke-linecap="round" stroke-linejoin="round"/>
</g>
</svg>
