<svg width="51" height="52" viewBox="0 0 51 52" fill="none" xmlns="http://www.w3.org/2000/svg">
<g id="Google" clip-path="url(#clip0_2292_21941)">
<path id="Vector" d="M50.5 26.1667C50.5 24.4444 50.3333 22.6667 50.0556 21H26V30.8333H39.7778C39.2222 34 37.3889 36.7778 34.6667 38.5556L42.8889 44.9444C47.7222 40.4444 50.5 33.8889 50.5 26.1667Z" fill="#4280EF"/>
<path id="Vector_2" d="M25.9965 51.0556C32.8854 51.0556 38.6632 48.7778 42.8854 44.8889L34.6632 38.5556C32.3854 40.1111 29.441 41 25.9965 41C19.3299 41 13.7188 36.5 11.6632 30.5L3.21875 37C7.55208 45.6111 16.3299 51.0556 25.9965 51.0556Z" fill="#34A353"/>
<path id="Vector_3" d="M11.6684 30.4447C10.6128 27.278 10.6128 23.8336 11.6684 20.6669L3.22396 14.1113C-0.387153 21.3336 -0.387153 29.8335 3.22396 37.0002L11.6684 30.4447Z" fill="#F6B704"/>
<path id="Vector_4" d="M25.9965 10.1668C29.6076 10.1112 33.1632 11.5001 35.7743 14.0001L43.0521 6.66677C38.441 2.33343 32.3299 0.000101559 25.9965 0.0556571C16.3299 0.0556571 7.55208 5.5001 3.21875 14.1112L11.6632 20.6668C13.7188 14.6112 19.3299 10.1668 25.9965 10.1668Z" fill="#E54335"/>
</g>
<defs>
<clipPath id="clip0_2292_21941">
<rect width="50" height="51.1111" fill="white" transform="translate(0.5)"/>
</clipPath>
</defs>
</svg>
