<svg width="24" height="24" viewBox="0 0 24 24" fill="none" xmlns="http://www.w3.org/2000/svg">
<g id="mail-05">
<path id="Icon" d="M13.744 2.63297L21.272 7.52618C21.538 7.69908 21.671 7.78554 21.7674 7.90085C21.8527 8.00293 21.9167 8.12101 21.9558 8.24816C22 8.3918 22 8.55043 22 8.86769V16.1994C22 17.8796 22 18.7196 21.673 19.3614C21.3854 19.9259 20.9265 20.3848 20.362 20.6724C19.7202 20.9994 18.8802 20.9994 17.2 20.9994H6.8C5.11984 20.9994 4.27976 20.9994 3.63803 20.6724C3.07354 20.3848 2.6146 19.9259 2.32698 19.3614C2 18.7196 2 17.8796 2 16.1994V8.86769C2 8.55043 2 8.3918 2.04417 8.24816C2.08327 8.12101 2.14735 8.00293 2.23265 7.90085C2.32901 7.78554 2.46201 7.69908 2.72802 7.52618L10.256 2.63297M13.744 2.63297C13.1127 2.22266 12.7971 2.01751 12.457 1.93768C12.1564 1.86713 11.8436 1.86713 11.543 1.93768C11.2029 2.01751 10.8873 2.22266 10.256 2.63297M13.744 2.63297L19.9361 6.65788C20.624 7.10498 20.9679 7.32854 21.087 7.61203C21.1911 7.85978 21.1911 8.139 21.087 8.38676C20.9679 8.67025 20.624 8.8938 19.9361 9.3409L13.744 13.3658C13.1127 13.7761 12.7971 13.9813 12.457 14.0611C12.1564 14.1317 11.8436 14.1317 11.543 14.0611C11.2029 13.9813 10.8873 13.7761 10.256 13.3658L4.06386 9.3409C3.37601 8.8938 3.03209 8.67025 2.91297 8.38676C2.80888 8.139 2.80888 7.85978 2.91297 7.61203C3.03209 7.32854 3.37601 7.10498 4.06386 6.65788L10.256 2.63297M21.5 18.9994L14.8572 12.9994M9.14282 12.9994L2.5 18.9994" stroke="#454C58" stroke-width="1.5" stroke-linecap="round" stroke-linejoin="round"/>
</g>
</svg>
