<svg width="32" height="32" viewBox="0 0 32 32" fill="none" xmlns="http://www.w3.org/2000/svg">
<g id="Notification 2">
<path id="Vector" fill-rule="evenodd" clip-rule="evenodd" d="M4.66907 18.3841V18.0921C4.7119 17.2282 4.98876 16.3913 5.47111 15.6674C6.27396 14.798 6.82356 13.7324 7.06224 12.5826C7.06224 11.694 7.06224 10.7926 7.13987 9.90401C7.54088 5.62586 11.771 2.66797 15.9494 2.66797H16.0529C20.2313 2.66797 24.4613 5.62586 24.8753 9.90401C24.9529 10.7926 24.8753 11.694 24.94 12.5826C25.1818 13.735 25.7309 14.8038 26.5312 15.6801C27.017 16.3976 27.2944 17.2316 27.3332 18.0921V18.3714C27.3621 19.532 26.9624 20.6637 26.2077 21.5578C25.2106 22.6033 23.8574 23.2537 22.4045 23.3858C18.144 23.8429 13.8453 23.8429 9.58479 23.3858C8.13348 23.248 6.78231 22.5985 5.78158 21.5578C5.03863 20.663 4.64428 19.5381 4.66907 18.3841Z" stroke="#053AF9" stroke-width="1.5" stroke-linecap="round" stroke-linejoin="round"/>
<path id="Vector_2" d="M12.7383 27.8008C13.404 28.6362 14.3816 29.177 15.4546 29.3033C16.5278 29.4296 17.608 29.131 18.4561 28.4736C18.7169 28.2792 18.9516 28.053 19.1546 27.8008" stroke="#053AF9" stroke-width="1.5" stroke-linecap="round" stroke-linejoin="round"/>
</g>
</svg>
