<svg width="34" height="34" viewBox="0 0 34 34" fill="none" xmlns="http://www.w3.org/2000/svg">
<circle cx="17" cy="17" r="16.5" fill="#F6F7F7" stroke="#C8CACE"/>
<path d="M18.125 12.875H22.7792C23.1006 12.875 23.2614 12.875 23.3582 12.9427C23.4427 13.0018 23.4991 13.0931 23.5142 13.1952C23.5315 13.312 23.4596 13.4558 23.3158 13.7433L22.3766 15.6217C22.3301 15.7148 22.3068 15.7613 22.297 15.8103C22.2882 15.8536 22.2872 15.8981 22.294 15.9418C22.3016 15.9911 22.3227 16.0387 22.365 16.1337L23.375 18.4063C23.5 18.6875 23.5625 18.8281 23.542 18.9416C23.5241 19.0408 23.4671 19.1286 23.3837 19.1852C23.2883 19.25 23.1344 19.25 22.8267 19.25H17.075C16.655 19.25 16.4449 19.25 16.2845 19.1683C16.1434 19.0964 16.0287 18.9816 15.9567 18.8405C15.875 18.6801 15.875 18.47 15.875 18.05V16.25M10.25 23.75L10.25 10.625M10.25 16.25H16.925C17.345 16.25 17.5551 16.25 17.7155 16.1683C17.8566 16.0963 17.9713 15.9816 18.0433 15.8405C18.125 15.6801 18.125 15.47 18.125 15.05V11.075C18.125 10.655 18.125 10.4449 18.0433 10.2845C17.9713 10.1434 17.8566 10.0287 17.7155 9.95675C17.5551 9.875 17.345 9.875 16.925 9.875L11.45 9.875C11.03 9.875 10.8199 9.875 10.6595 9.95675C10.5184 10.0287 10.4037 10.1434 10.3317 10.2845C10.25 10.4449 10.25 10.655 10.25 11.075V16.25Z" stroke="#ADB0B6" stroke-width="1.5" stroke-linecap="round" stroke-linejoin="round"/>
</svg>
