<svg width="59" height="58" viewBox="0 0 59 58" fill="none" xmlns="http://www.w3.org/2000/svg">
<g id="Calling 1">
<path id="Vector" fill-rule="evenodd" clip-rule="evenodd" d="M7.72311 11.779C8.48755 10.5108 12.702 5.90709 15.7052 6.04605C16.6037 6.12299 17.398 6.66401 18.0433 7.2944H18.0458C19.525 8.74375 23.7693 14.2136 24.0075 15.3651C24.5958 18.1894 21.2277 19.8174 22.2577 22.6641C24.8837 29.0893 29.4085 33.6138 35.8368 36.2368C38.6812 37.2692 40.3093 33.904 43.1339 34.4898C44.2855 34.7305 49.7585 38.9718 51.2053 40.4534C51.8334 41.0962 52.3794 41.8928 52.4538 42.7913C52.5654 45.9554 47.676 50.2267 46.7229 50.7726C44.4742 52.3833 41.5404 52.3536 37.9639 50.6909C27.9838 46.5388 12.0343 30.8911 7.80501 20.5347C6.18673 16.9783 6.07752 14.025 7.72311 11.779Z" stroke="#053AF9" stroke-width="1.5" stroke-linecap="round" stroke-linejoin="round"/>
<path id="Vector_2" d="M35.7031 6.64453C44.6496 7.63778 51.7135 14.6944 52.7189 23.6385" stroke="#053AF9" stroke-width="1.5" stroke-linecap="round" stroke-linejoin="round"/>
<path id="Vector_3" d="M35.7031 15.207C39.9806 16.0408 43.3229 19.383 44.1566 23.6605" stroke="#053AF9" stroke-width="1.5" stroke-linecap="round" stroke-linejoin="round"/>
</g>
</svg>
