<svg width="25" height="25" viewBox="0 0 25 25" fill="none" xmlns="http://www.w3.org/2000/svg">
<g id="phone">
<path id="Icon" d="M8.74746 9.35335C9.44346 10.803 10.3922 12.1616 11.5938 13.3632C12.7954 14.5648 14.154 15.5136 15.6037 16.2096C15.7284 16.2694 15.7907 16.2994 15.8696 16.3224C16.1499 16.4041 16.4942 16.3454 16.7316 16.1754C16.7984 16.1275 16.8556 16.0704 16.9699 15.9561C17.3195 15.6064 17.4943 15.4316 17.6701 15.3174C18.333 14.8864 19.1876 14.8864 19.8505 15.3174C20.0262 15.4316 20.201 15.6064 20.5507 15.9561L20.7455 16.1509C21.277 16.6824 21.5427 16.9481 21.687 17.2335C21.9741 17.801 21.9741 18.4713 21.687 19.0389C21.5427 19.3242 21.277 19.59 20.7455 20.1214L20.5879 20.279C20.0583 20.8087 19.7935 21.0735 19.4334 21.2757C19.0339 21.5001 18.4134 21.6615 17.9552 21.6601C17.5423 21.6589 17.26 21.5788 16.6956 21.4186C13.6622 20.5576 10.7998 18.9332 8.41185 16.5452C6.02387 14.1572 4.39939 11.2948 3.53842 8.26144C3.37822 7.69699 3.29811 7.41477 3.29688 7.00182C3.29552 6.5436 3.45688 5.92311 3.6813 5.5236C3.88355 5.16357 4.14836 4.89876 4.67798 4.36913L4.83562 4.2115C5.36706 3.68006 5.63278 3.41433 5.91816 3.26999C6.48573 2.98292 7.15599 2.98292 7.72355 3.26999C8.00893 3.41433 8.27465 3.68006 8.8061 4.2115L9.00097 4.40637C9.35057 4.75597 9.52537 4.93078 9.63966 5.10655C10.0707 5.76945 10.0707 6.62403 9.63966 7.28692C9.52537 7.46269 9.35057 7.6375 9.00097 7.9871C8.88665 8.10142 8.8295 8.15857 8.78166 8.22538C8.61164 8.46281 8.55294 8.80707 8.63467 9.08743C8.65766 9.16632 8.6876 9.22866 8.74746 9.35335Z" stroke="#4C5361" stroke-width="1.5" stroke-linecap="round" stroke-linejoin="round"/>
</g>
</svg>
