<svg width="59" height="59" viewBox="0 0 59 59" fill="none" xmlns="http://www.w3.org/2000/svg">
<g id="file-06">
<path id="Icon" d="M34.3346 5.98535V15.9675C34.3346 17.321 34.3346 17.9977 34.598 18.5146C34.8297 18.9694 35.1994 19.3391 35.6542 19.5708C36.1711 19.8342 36.8478 19.8342 38.2013 19.8342H48.1834M39.168 31.9173H19.8346M39.168 41.584H19.8346M24.668 22.2507H19.8346M34.3346 5.33398H21.768C17.7076 5.33398 15.6774 5.33398 14.1265 6.12419C12.7624 6.81927 11.6533 7.92838 10.9582 9.29255C10.168 10.8434 10.168 12.8736 10.168 16.934V42.0673C10.168 46.1277 10.168 48.1579 10.9582 49.7087C11.6533 51.0729 12.7624 52.182 14.1265 52.8771C15.6774 53.6673 17.7076 53.6673 21.768 53.6673H37.2346C41.295 53.6673 43.3252 53.6673 44.8761 52.8771C46.2402 52.182 47.3493 51.0729 48.0444 49.7087C48.8346 48.1579 48.8346 46.1277 48.8346 42.0673V19.834L34.3346 5.33398Z" stroke="#053AF9" stroke-width="1.5" stroke-linecap="round" stroke-linejoin="round"/>
</g>
</svg>
