<svg width="15" height="14" viewBox="0 0 15 14" fill="none" xmlns="http://www.w3.org/2000/svg">
<g id="message-question-circle">
<path id="Icon" d="M6.62421 5.2513C6.72699 4.95913 6.92986 4.71275 7.19689 4.55582C7.46392 4.39888 7.77787 4.34152 8.08314 4.39388C8.38841 4.44624 8.6653 4.60495 8.86476 4.8419C9.06423 5.07885 9.1734 5.37875 9.17294 5.68848C9.17294 6.56283 7.86141 7 7.86141 7M7.87832 8.75H7.88415M7.79088 11.6667C10.5293 11.6667 12.7492 9.44675 12.7492 6.70833C12.7492 3.96992 10.5293 1.75 7.79088 1.75C5.05247 1.75 2.83254 3.96992 2.83254 6.70833C2.83254 7.2625 2.92346 7.79543 3.09118 8.29302C3.15429 8.48028 3.18585 8.57391 3.19154 8.64583C3.19717 8.71687 3.19292 8.76667 3.17534 8.83572C3.15755 8.90565 3.11826 8.97837 3.03968 9.12381L2.08555 10.8899C1.94945 11.1418 1.8814 11.2677 1.89663 11.365C1.9099 11.4496 1.95973 11.5242 2.0329 11.5688C2.1169 11.62 2.2593 11.6053 2.54411 11.5759L5.53137 11.2671C5.62184 11.2577 5.66707 11.2531 5.7083 11.2546C5.74885 11.2562 5.77747 11.26 5.81701 11.2691C5.85722 11.2784 5.90777 11.2979 6.00889 11.3368C6.56192 11.5499 7.16276 11.6667 7.79088 11.6667Z" stroke="#EDEEEF" stroke-linecap="round" stroke-linejoin="round"/>
</g>
</svg>
