<svg width="59" height="58" viewBox="0 0 59 58" fill="none" xmlns="http://www.w3.org/2000/svg">
<g id="shield-tick">
<path id="Icon" d="M22.2474 27.792L27.0807 32.6254L37.9557 21.7504M48.8307 29.0004C48.8307 40.8624 35.892 49.4898 31.1842 52.2363C30.6492 52.5485 30.3817 52.7045 30.0041 52.7855C29.7111 52.8483 29.2837 52.8483 28.9907 52.7855C28.6131 52.7045 28.3456 52.5485 27.8106 52.2363C23.1028 49.4898 10.1641 40.8624 10.1641 29.0004V17.4429C10.1641 15.5108 10.1641 14.5447 10.4801 13.7142C10.7592 12.9806 11.2129 12.326 11.8017 11.8071C12.4683 11.2196 13.3729 10.8804 15.182 10.202L28.1397 5.34284C28.6421 5.15444 28.8933 5.06023 29.1518 5.02289C29.381 4.98977 29.6138 4.98977 29.843 5.02289C30.1014 5.06023 30.3527 5.15444 30.8551 5.34284L43.8127 10.202C45.6219 10.8804 46.5264 11.2196 47.1931 11.8071C47.7819 12.326 48.2356 12.9806 48.5147 13.7142C48.8307 14.5447 48.8307 15.5108 48.8307 17.4429V29.0004Z" stroke="#053AF9" stroke-width="2" stroke-linecap="round" stroke-linejoin="round"/>
</g>
</svg>
