<svg width="59" height="59" viewBox="0 0 59 59" fill="none" xmlns="http://www.w3.org/2000/svg">
<g id="briefcase-01">
<path id="Icon" d="M39.1654 17.4167C39.1654 15.1692 39.1654 14.0455 38.9183 13.1236C38.2479 10.6216 36.2937 8.66742 33.7918 7.99704C32.8698 7.75 31.7461 7.75 29.4987 7.75C27.2513 7.75 26.1276 7.75 25.2056 7.99704C22.7037 8.66742 20.7495 10.6216 20.0791 13.1236C19.832 14.0455 19.832 15.1692 19.832 17.4167M13.0654 51.25H45.932C48.639 51.25 49.9924 51.25 51.0263 50.7232C51.9358 50.2598 52.6752 49.5204 53.1386 48.611C53.6654 47.5771 53.6654 46.2236 53.6654 43.5167V25.15C53.6654 22.4431 53.6654 21.0896 53.1386 20.0557C52.6752 19.1463 51.9358 18.4069 51.0263 17.9435C49.9924 17.4167 48.639 17.4167 45.932 17.4167H13.0654C10.3584 17.4167 9.00498 17.4167 7.97108 17.9435C7.06163 18.4069 6.32222 19.1463 5.85883 20.0557C5.33203 21.0896 5.33203 22.4431 5.33203 25.15V43.5167C5.33203 46.2236 5.33203 47.5771 5.85883 48.611C6.32222 49.5204 7.06163 50.2598 7.97108 50.7232C9.00498 51.25 10.3584 51.25 13.0654 51.25Z" stroke="#053AF9" stroke-width="1.5" stroke-linecap="round" stroke-linejoin="round"/>
</g>
</svg>
