<svg width="48" height="16" viewBox="0 0 48 16" fill="none" xmlns="http://www.w3.org/2000/svg">
<g id="Visa_Inc._logo 1" clip-path="url(#clip0_2292_21491)">
<g id="g4158">
<path id="polygon9" d="M20.8024 15.5418H16.9141L19.3461 0.503906H23.2342L20.8024 15.5418Z" fill="#00579F"/>
<path id="path11" d="M34.8983 0.872647C34.1314 0.568375 32.9149 0.232422 31.4108 0.232422C27.5709 0.232422 24.8669 2.28003 24.8504 5.2075C24.8185 7.36738 26.7863 8.56703 28.2581 9.2872C29.7625 10.0231 30.2739 10.5034 30.2739 11.1594C30.2586 12.1668 29.0583 12.6312 27.9388 12.6312C26.3864 12.6312 25.5546 12.3918 24.2905 11.8313L23.7785 11.591L23.2344 14.9667C24.1463 15.3822 25.8265 15.7509 27.5709 15.7671C31.6508 15.7671 34.307 13.7511 34.3385 10.6314C34.354 8.91957 33.3149 7.60787 31.0746 6.53601C29.7147 5.84794 28.8818 5.38399 28.8818 4.67997C28.8977 4.03996 29.5862 3.38443 31.1214 3.38443C32.3855 3.35232 33.3142 3.65617 34.0178 3.96022L34.3695 4.11991L34.8983 0.872647Z" fill="#00579F"/>
<path id="path13" d="M40.0628 10.2144C40.383 9.35053 41.6152 6.00694 41.6152 6.00694C41.599 6.03905 41.9348 5.12709 42.1268 4.56724L42.3985 5.86299C42.3985 5.86299 43.1348 9.46258 43.2947 10.2144C42.687 10.2144 40.8308 10.2144 40.0628 10.2144ZM44.8624 0.503906H41.8548C40.9273 0.503906 40.2227 0.775645 39.8225 1.75161L34.0469 15.5416H38.1268C38.1268 15.5416 38.7985 13.6856 38.9429 13.2859C39.3904 13.2859 43.3594 13.2859 43.9352 13.2859C44.0468 13.8138 44.3991 15.5416 44.3991 15.5416H47.9993L44.8624 0.503906Z" fill="#00579F"/>
<path id="path15" d="M13.6625 0.503906L9.8545 10.7583L9.43838 8.67862C8.73437 6.27889 6.52644 3.67165 4.0625 2.37525L7.55046 15.5259H11.6623L17.7741 0.503906H13.6625Z" fill="#00579F"/>
<path id="path17" d="M6.31995 0.505859H0.0640009L0 0.809705C4.88004 2.05762 8.11199 5.06568 9.43985 8.68121L8.07988 1.76994C7.85598 0.809493 7.16792 0.537541 6.31995 0.505859Z" fill="#FAA61A"/>
</g>
</g>
<defs>
<clipPath id="clip0_2292_21491">
<rect width="48" height="15.5346" fill="white" transform="translate(0 0.232422)"/>
</clipPath>
</defs>
</svg>
