<svg width="13" height="13" viewBox="0 0 13 13" fill="none" xmlns="http://www.w3.org/2000/svg">
<path d="M6.63276 2.16699C6.92207 2.16858 7.6459 2.17558 8.41496 2.20639L8.68763 2.21828C9.46194 2.25494 10.2356 2.31756 10.6193 2.42455C11.1311 2.56834 11.5334 2.98789 11.6694 3.51971C11.8859 4.36421 11.913 6.0125 11.9163 6.41138L11.9168 6.49404V6.49984C11.9168 6.49984 11.9168 6.50184 11.9168 6.50569L11.9163 6.58835C11.913 6.98723 11.8859 8.63552 11.6694 9.48003C11.5315 10.0138 11.1292 10.4334 10.6193 10.5752C10.2356 10.6822 9.46194 10.7448 8.68763 10.7814L8.41496 10.7933C7.6459 10.8241 6.92207 10.8311 6.63276 10.8327L6.5058 10.8332H6.50016C6.50016 10.8332 6.49827 10.8332 6.49453 10.8332L6.36767 10.8327C5.75537 10.8294 3.19525 10.8017 2.38101 10.5752C1.86918 10.4314 1.4669 10.0118 1.33091 9.48003C1.11443 8.63552 1.08736 6.98723 1.08398 6.58835V6.41138C1.08736 6.0125 1.11443 4.36421 1.33091 3.51971C1.46878 2.98592 1.87107 2.56637 2.38101 2.42455C3.19525 2.19799 5.75537 2.17036 6.36767 2.16699H6.63276ZM5.41684 4.60403V8.39567L8.66683 6.49984L5.41684 4.60403Z" fill="#053AF9"/>
</svg>
