<svg width="17" height="16" viewBox="0 0 17 16" fill="none" xmlns="http://www.w3.org/2000/svg">
<g clip-path="url(#clip0_1508_132610)">
<path d="M8.65991 6.54541V9.64362H12.9654C12.7763 10.64 12.209 11.4837 11.3581 12.0509L13.9544 14.0655C15.4672 12.6692 16.3399 10.6182 16.3399 8.18186C16.3399 7.6146 16.289 7.06909 16.1944 6.5455L8.65991 6.54541Z" fill="#4285F4"/>
<path d="M4.17666 9.52295L3.59108 9.9712L1.51831 11.5857C2.83468 14.1966 5.53268 16.0003 8.65994 16.0003C10.8199 16.0003 12.6308 15.2876 13.9545 14.0658L11.3581 12.0512C10.6454 12.5312 9.73627 12.8221 8.65994 12.8221C6.57994 12.8221 4.81271 11.4185 4.17993 9.52757L4.17666 9.52295Z" fill="#34A853"/>
<path d="M1.51804 4.41455C0.972608 5.49088 0.659912 6.70545 0.659912 7.99998C0.659912 9.29451 0.972608 10.5091 1.51804 11.5854C1.51804 11.5926 4.17991 9.51994 4.17991 9.51994C4.01991 9.03994 3.92534 8.53088 3.92534 7.99989C3.92534 7.46891 4.01991 6.95985 4.17991 6.47985L1.51804 4.41455Z" fill="#FBBC05"/>
<path d="M8.6601 3.18547C9.83831 3.18547 10.8856 3.59273 11.7219 4.3782L14.0128 2.08731C12.6237 0.792781 10.8201 0 8.6601 0C5.53284 0 2.83468 1.79637 1.51831 4.41458L4.18011 6.48004C4.8128 4.5891 6.5801 3.18547 8.6601 3.18547Z" fill="#EA4335"/>
</g>
<defs>
<clipPath id="clip0_1508_132610">
<rect width="15.68" height="16" fill="white" transform="translate(0.659912)"/>
</clipPath>
</defs>
</svg>
