<svg width="58" height="58" viewBox="0 0 58 58" fill="none" xmlns="http://www.w3.org/2000/svg">
<path d="M27.9823 29.1353C34.3595 29.1353 39.5292 23.9656 39.5292 17.5884C39.5292 11.2112 34.3595 6.0415 27.9823 6.0415C21.6052 6.0415 16.4354 11.2112 16.4354 17.5884C16.4354 23.9656 21.6052 29.1353 27.9823 29.1353Z" stroke="#053AF9" stroke-width="1.5" stroke-linecap="round" stroke-linejoin="round"/>
<path fill-rule="evenodd" clip-rule="evenodd" d="M9.66667 45.195C9.66355 44.3833 9.84509 43.5814 10.1976 42.8501C11.3036 40.6382 14.4226 39.4658 17.0107 38.9349C18.8772 38.5366 20.7695 38.2703 22.6735 38.1386C26.1985 37.8288 29.744 37.8288 33.2692 38.1386C35.1731 38.272 37.0653 38.5381 38.9322 38.9349C41.5202 39.4658 44.6392 40.5275 45.7453 42.8501C46.4541 44.3407 46.4541 46.0713 45.7453 47.5619C44.6392 49.8846 41.5202 50.9462 38.9322 51.4552C37.0677 51.8699 35.1748 52.1434 33.2692 52.2735C30.4002 52.5168 27.5176 52.561 24.6422 52.4064C23.9786 52.4064 23.3371 52.4064 22.6735 52.2735C20.7751 52.1451 18.8894 51.8716 17.0328 51.4552C14.4226 50.9462 11.3257 49.8846 10.1976 47.5619C9.8469 46.8222 9.66553 46.0136 9.66667 45.195Z" stroke="#053AF9" stroke-width="1.5" stroke-linecap="round" stroke-linejoin="round"/>
</svg>
