<svg width="58" height="38" viewBox="0 0 58 38" fill="none" xmlns="http://www.w3.org/2000/svg">
<rect x="0.5" width="57" height="38" rx="19" fill="#EFEFEF"/>
<rect x="7" y="5.5" width="44" height="27" rx="13.5" fill="white"/>
<rect x="7" y="5.5" width="44" height="27" rx="13.5" stroke="#DFDFDF"/>
<path d="M22.0241 24.1392C21.3414 24.1392 20.7315 24.0215 20.1946 23.7862C19.661 23.5509 19.2384 23.2244 18.9268 22.8068C18.6186 22.3859 18.4529 21.8987 18.4297 21.3452H19.9908C20.0107 21.6468 20.1117 21.9086 20.294 22.1307C20.4796 22.3494 20.7216 22.5185 21.0199 22.6378C21.3182 22.7571 21.6496 22.8168 22.0142 22.8168C22.4152 22.8168 22.7699 22.7472 23.0781 22.608C23.3897 22.4687 23.6333 22.2749 23.8089 22.0263C23.9846 21.7744 24.0724 21.4844 24.0724 21.1562C24.0724 20.8149 23.9846 20.5149 23.8089 20.2564C23.6366 19.9946 23.383 19.7891 23.0483 19.6399C22.7169 19.4908 22.3158 19.4162 21.8452 19.4162H20.9851V18.1634H21.8452C22.223 18.1634 22.5545 18.0954 22.8395 17.9595C23.1278 17.8236 23.3532 17.6347 23.5156 17.3928C23.678 17.1475 23.7592 16.8608 23.7592 16.5327C23.7592 16.2178 23.688 15.9444 23.5455 15.7124C23.4063 15.477 23.2074 15.2931 22.9489 15.1605C22.6937 15.0279 22.392 14.9616 22.044 14.9616C21.7126 14.9616 21.4027 15.023 21.1143 15.1456C20.8293 15.2649 20.5973 15.4373 20.4183 15.6626C20.2393 15.8847 20.1432 16.1515 20.13 16.4631H18.6435C18.66 15.9129 18.8224 15.429 19.1307 15.0114C19.4422 14.5937 19.8532 14.2673 20.3636 14.032C20.8741 13.7966 21.4408 13.679 22.0639 13.679C22.7169 13.679 23.2803 13.8066 23.7543 14.0618C24.2315 14.3137 24.5994 14.6501 24.858 15.071C25.1198 15.492 25.2491 15.9527 25.2457 16.4531C25.2491 17.0232 25.09 17.5071 24.7685 17.9048C24.4503 18.3026 24.026 18.5694 23.4957 18.7053V18.7848C24.1719 18.8875 24.6955 19.156 25.0668 19.5902C25.4413 20.0244 25.6269 20.563 25.6236 21.206C25.6269 21.7661 25.4711 22.2682 25.1562 22.7124C24.8447 23.1565 24.4188 23.5062 23.8786 23.7614C23.3383 24.0133 22.7202 24.1392 22.0241 24.1392ZM31.4006 13.3409L28.1193 25.5312H26.7919L30.0732 13.3409H31.4006ZM36.0043 24.1392C35.3812 24.1392 34.821 24.0199 34.3239 23.7812C33.83 23.5393 33.4356 23.2079 33.1406 22.7869C32.8456 22.366 32.6882 21.8854 32.6683 21.3452H34.1598C34.1963 21.7827 34.3902 22.1423 34.7415 22.424C35.0928 22.7057 35.5137 22.8466 36.0043 22.8466C36.3954 22.8466 36.7417 22.7571 37.0433 22.5781C37.3482 22.3958 37.5869 22.1456 37.7592 21.8274C37.9349 21.5092 38.0227 21.1463 38.0227 20.7386C38.0227 20.3243 37.9332 19.9548 37.7543 19.63C37.5753 19.3052 37.3284 19.05 37.0135 18.8643C36.7019 18.6787 36.344 18.5843 35.9396 18.581C35.6314 18.581 35.3215 18.634 35.0099 18.7401C34.6984 18.8461 34.4465 18.9853 34.2543 19.1577L32.8473 18.9489L33.419 13.8182H39.017V15.1357H34.6967L34.3736 17.9844H34.4332C34.6321 17.7921 34.8956 17.6314 35.2237 17.5021C35.5552 17.3729 35.9098 17.3082 36.2876 17.3082C36.9074 17.3082 37.4593 17.4557 37.9432 17.7507C38.4304 18.0457 38.8132 18.4484 39.0916 18.9588C39.3733 19.4659 39.5125 20.0492 39.5092 20.7088C39.5125 21.3684 39.3634 21.9567 39.0618 22.4737C38.7635 22.9908 38.3492 23.3984 37.8189 23.6967C37.2919 23.9917 36.687 24.1392 36.0043 24.1392Z" fill="#2E2E2E"/>
</svg>
