<svg width="58" height="38" viewBox="0 0 58 38" fill="none" xmlns="http://www.w3.org/2000/svg">
<rect x="0.5" width="57" height="38" rx="19" fill="#EFEFEF"/>
<rect x="7" y="5.5" width="44" height="27" rx="13.5" fill="white"/>
<rect x="7" y="5.5" width="44" height="27" rx="13.5" stroke="#DFDFDF"/>
<path d="M21.8402 24.1392C21.2171 24.1392 20.657 24.0199 20.1598 23.7812C19.666 23.5393 19.2715 23.2079 18.9766 22.7869C18.6816 22.366 18.5241 21.8854 18.5043 21.3452H19.9957C20.0322 21.7827 20.2261 22.1423 20.5774 22.424C20.9287 22.7057 21.3497 22.8466 21.8402 22.8466C22.2313 22.8466 22.5777 22.7571 22.8793 22.5781C23.1842 22.3958 23.4228 22.1456 23.5952 21.8274C23.7708 21.5092 23.8587 21.1463 23.8587 20.7386C23.8587 20.3243 23.7692 19.9548 23.5902 19.63C23.4112 19.3052 23.1643 19.05 22.8494 18.8643C22.5379 18.6787 22.1799 18.5843 21.7756 18.581C21.4673 18.581 21.1574 18.634 20.8459 18.7401C20.5343 18.8461 20.2824 18.9853 20.0902 19.1577L18.6832 18.9489L19.255 13.8182H24.853V15.1357H20.5327L20.2095 17.9844H20.2692C20.468 17.7921 20.7315 17.6314 21.0597 17.5021C21.3911 17.3729 21.7457 17.3082 22.1236 17.3082C22.7434 17.3082 23.2952 17.4557 23.7791 17.7507C24.2663 18.0457 24.6491 18.4484 24.9276 18.9588C25.2093 19.4659 25.3485 20.0492 25.3452 20.7088C25.3485 21.3684 25.1993 21.9567 24.8977 22.4737C24.5994 22.9908 24.1851 23.3984 23.6548 23.6967C23.1278 23.9917 22.523 24.1392 21.8402 24.1392ZM31.0588 13.3409L27.7775 25.5312H26.4501L29.7314 13.3409H31.0588ZM35.6625 24.1392C35.0394 24.1392 34.4792 24.0199 33.9821 23.7812C33.4882 23.5393 33.0938 23.2079 32.7988 22.7869C32.5038 22.366 32.3464 21.8854 32.3265 21.3452H33.818C33.8545 21.7827 34.0484 22.1423 34.3997 22.424C34.751 22.7057 35.1719 22.8466 35.6625 22.8466C36.0536 22.8466 36.3999 22.7571 36.7015 22.5781C37.0065 22.3958 37.2451 22.1456 37.4174 21.8274C37.5931 21.5092 37.6809 21.1463 37.6809 20.7386C37.6809 20.3243 37.5914 19.9548 37.4125 19.63C37.2335 19.3052 36.9866 19.05 36.6717 18.8643C36.3601 18.6787 36.0022 18.5843 35.5978 18.581C35.2896 18.581 34.9797 18.634 34.6681 18.7401C34.3566 18.8461 34.1047 18.9853 33.9125 19.1577L32.5055 18.9489L33.0772 13.8182H38.6752V15.1357H34.3549L34.0318 17.9844H34.0914C34.2903 17.7921 34.5538 17.6314 34.8819 17.5021C35.2134 17.3729 35.568 17.3082 35.9458 17.3082C36.5656 17.3082 37.1175 17.4557 37.6014 17.7507C38.0886 18.0457 38.4714 18.4484 38.7498 18.9588C39.0315 19.4659 39.1708 20.0492 39.1674 20.7088C39.1708 21.3684 39.0216 21.9567 38.72 22.4737C38.4217 22.9908 38.0074 23.3984 37.4771 23.6967C36.9501 23.9917 36.3452 24.1392 35.6625 24.1392Z" fill="#2E2E2E"/>
</svg>
