<svg width="58" height="38" viewBox="0 0 58 38" fill="none" xmlns="http://www.w3.org/2000/svg">
<rect x="0.5" width="57" height="38" rx="19" fill="#EFEFEF"/>
<rect x="7" y="5.5" width="44" height="27" rx="13.5" fill="white"/>
<rect x="7" y="5.5" width="44" height="27" rx="13.5" stroke="#DFDFDF"/>
<path d="M18.4794 24V22.8864L21.9247 19.3168C22.2926 18.929 22.5959 18.5893 22.8345 18.2976C23.0765 18.0026 23.2571 17.7225 23.3764 17.4574C23.4957 17.1922 23.5554 16.9105 23.5554 16.6122C23.5554 16.2741 23.4759 15.9825 23.3168 15.7372C23.1577 15.4886 22.9406 15.2981 22.6655 15.1655C22.3904 15.0296 22.0805 14.9616 21.7358 14.9616C21.3712 14.9616 21.053 15.0362 20.7812 15.1854C20.5095 15.3345 20.3007 15.545 20.1548 15.8168C20.009 16.0885 19.9361 16.4067 19.9361 16.7713H18.4695C18.4695 16.1515 18.612 15.6096 18.897 15.1456C19.1821 14.6816 19.5732 14.322 20.0703 14.0668C20.5675 13.8082 21.1326 13.679 21.7656 13.679C22.4053 13.679 22.9688 13.8066 23.456 14.0618C23.9465 14.3137 24.3293 14.6584 24.6044 15.0959C24.8795 15.5301 25.017 16.0206 25.017 16.5675C25.017 16.9453 24.9458 17.3149 24.8033 17.6761C24.6641 18.0374 24.4205 18.4401 24.0724 18.8842C23.7244 19.325 23.2405 19.8603 22.6207 20.4901L20.5973 22.608V22.6825H25.1811V24H18.4794ZM30.9631 13.3409L27.6818 25.5312H26.3544L29.6357 13.3409H30.9631ZM35.5668 24.1392C34.9437 24.1392 34.3835 24.0199 33.8864 23.7812C33.3925 23.5393 32.9981 23.2079 32.7031 22.7869C32.4081 22.366 32.2507 21.8854 32.2308 21.3452H33.7223C33.7588 21.7827 33.9527 22.1423 34.304 22.424C34.6553 22.7057 35.0762 22.8466 35.5668 22.8466C35.9579 22.8466 36.3042 22.7571 36.6058 22.5781C36.9107 22.3958 37.1494 22.1456 37.3217 21.8274C37.4974 21.5092 37.5852 21.1463 37.5852 20.7386C37.5852 20.3243 37.4957 19.9548 37.3168 19.63C37.1378 19.3052 36.8909 19.05 36.576 18.8643C36.2644 18.6787 35.9065 18.5843 35.5021 18.581C35.1939 18.581 34.884 18.634 34.5724 18.7401C34.2609 18.8461 34.009 18.9853 33.8168 19.1577L32.4098 18.9489L32.9815 13.8182H38.5795V15.1357H34.2592L33.9361 17.9844H33.9957C34.1946 17.7921 34.4581 17.6314 34.7862 17.5021C35.1177 17.3729 35.4723 17.3082 35.8501 17.3082C36.4699 17.3082 37.0218 17.4557 37.5057 17.7507C37.9929 18.0457 38.3757 18.4484 38.6541 18.9588C38.9358 19.4659 39.075 20.0492 39.0717 20.7088C39.075 21.3684 38.9259 21.9567 38.6243 22.4737C38.326 22.9908 37.9117 23.3984 37.3814 23.6967C36.8544 23.9917 36.2495 24.1392 35.5668 24.1392Z" fill="#2E2E2E"/>
</svg>
