<svg width="56" height="38" viewBox="0 0 56 38" fill="none" xmlns="http://www.w3.org/2000/svg">
<rect x="0.5" width="55" height="38" rx="19" fill="#EFEFEF"/>
<rect x="7" y="5.5" width="42" height="27" rx="13.5" fill="white"/>
<rect x="7" y="5.5" width="42" height="27" rx="13.5" stroke="#DFDFDF"/>
<path d="M22.3423 13.8182V24H20.8011V15.3594H20.7415L18.3054 16.9503V15.4787L20.8459 13.8182H22.3423ZM28.9943 13.3409L25.7131 25.5312H24.3857L27.6669 13.3409H28.9943ZM33.598 24.1392C32.9749 24.1392 32.4148 24.0199 31.9176 23.7812C31.4238 23.5393 31.0294 23.2079 30.7344 22.7869C30.4394 22.366 30.282 21.8854 30.2621 21.3452H31.7536C31.79 21.7827 31.9839 22.1423 32.3352 22.424C32.6866 22.7057 33.1075 22.8466 33.598 22.8466C33.9891 22.8466 34.3355 22.7571 34.6371 22.5781C34.942 22.3958 35.1806 22.1456 35.353 21.8274C35.5286 21.5092 35.6165 21.1463 35.6165 20.7386C35.6165 20.3243 35.527 19.9548 35.348 19.63C35.169 19.3052 34.9221 19.05 34.6072 18.8643C34.2957 18.6787 33.9377 18.5843 33.5334 18.581C33.2251 18.581 32.9152 18.634 32.6037 18.7401C32.2921 18.8461 32.0402 18.9853 31.848 19.1577L30.4411 18.9489L31.0128 13.8182H36.6108V15.1357H32.2905L31.9673 17.9844H32.027C32.2259 17.7921 32.4893 17.6314 32.8175 17.5021C33.1489 17.3729 33.5036 17.3082 33.8814 17.3082C34.5012 17.3082 35.053 17.4557 35.5369 17.7507C36.0241 18.0457 36.407 18.4484 36.6854 18.9588C36.9671 19.4659 37.1063 20.0492 37.103 20.7088C37.1063 21.3684 36.9571 21.9567 36.6555 22.4737C36.3572 22.9908 35.9429 23.3984 35.4126 23.6967C34.8857 23.9917 34.2808 24.1392 33.598 24.1392Z" fill="#2E2E2E"/>
</svg>
