<svg width="58" height="38" viewBox="0 0 58 38" fill="none" xmlns="http://www.w3.org/2000/svg">
<rect x="0.5" width="57" height="38" rx="19" fill="#EFEFEF"/>
<rect x="7" y="5.5" width="44" height="27" rx="13.5" fill="white"/>
<rect x="7" y="5.5" width="44" height="27" rx="13.5" stroke="#DFDFDF"/>
<path d="M18.2656 22.0114V20.7685L22.6655 13.8182H23.6449V15.6477H23.0234L19.8764 20.6293V20.7088H25.907V22.0114H18.2656ZM23.093 24V21.6335L23.103 21.0668V13.8182H24.5597V24H23.093ZM31.5373 13.3409L28.256 25.5312H26.9286L30.2099 13.3409H31.5373ZM36.141 24.1392C35.5179 24.1392 34.9577 24.0199 34.4606 23.7812C33.9667 23.5393 33.5723 23.2079 33.2773 22.7869C32.9824 22.366 32.8249 21.8854 32.805 21.3452H34.2965C34.333 21.7827 34.5269 22.1423 34.8782 22.424C35.2295 22.7057 35.6505 22.8466 36.141 22.8466C36.5321 22.8466 36.8784 22.7571 37.18 22.5781C37.485 22.3958 37.7236 22.1456 37.896 21.8274C38.0716 21.5092 38.1594 21.1463 38.1594 20.7386C38.1594 20.3243 38.07 19.9548 37.891 19.63C37.712 19.3052 37.4651 19.05 37.1502 18.8643C36.8387 18.6787 36.4807 18.5843 36.0763 18.581C35.7681 18.581 35.4582 18.634 35.1467 18.7401C34.8351 18.8461 34.5832 18.9853 34.391 19.1577L32.984 18.9489L33.5558 13.8182H39.1538V15.1357H34.8335L34.5103 17.9844H34.57C34.7688 17.7921 35.0323 17.6314 35.3604 17.5021C35.6919 17.3729 36.0465 17.3082 36.4244 17.3082C37.0442 17.3082 37.596 17.4557 38.0799 17.7507C38.5671 18.0457 38.9499 18.4484 39.2283 18.9588C39.5101 19.4659 39.6493 20.0492 39.646 20.7088C39.6493 21.3684 39.5001 21.9567 39.1985 22.4737C38.9002 22.9908 38.4859 23.3984 37.9556 23.6967C37.4286 23.9917 36.8237 24.1392 36.141 24.1392Z" fill="#2E2E2E"/>
</svg>
