<svg width="98" height="38" viewBox="0 0 98 38" fill="none" xmlns="http://www.w3.org/2000/svg">
<rect width="98" height="38" rx="19" fill="#EFEFEF"/>
<rect x="6.5" y="5.5" width="85" height="27" rx="13.5" fill="white"/>
<rect x="6.5" y="5.5" width="85" height="27" rx="13.5" stroke="#DFDFDF"/>
<path d="M23.6719 16.4929C23.6188 16.0223 23.4001 15.6577 23.0156 15.3991C22.6312 15.1373 22.1473 15.0064 21.5639 15.0064C21.1463 15.0064 20.785 15.0727 20.4801 15.2053C20.1752 15.3345 19.9382 15.5135 19.7692 15.7422C19.6035 15.9676 19.5206 16.2244 19.5206 16.5128C19.5206 16.7547 19.5769 16.9635 19.6896 17.1392C19.8056 17.3149 19.9564 17.4624 20.142 17.5817C20.331 17.6977 20.5331 17.7955 20.7486 17.875C20.964 17.9512 21.1712 18.0142 21.37 18.0639L22.3643 18.3224C22.6892 18.402 23.0223 18.5097 23.3636 18.6456C23.705 18.7815 24.0215 18.9605 24.3132 19.1825C24.6049 19.4046 24.8402 19.6797 25.0192 20.0078C25.2015 20.3359 25.2926 20.7287 25.2926 21.1861C25.2926 21.7628 25.1435 22.2749 24.8452 22.7223C24.5502 23.1697 24.121 23.5227 23.5575 23.7812C22.9974 24.0398 22.3196 24.169 21.5241 24.169C20.7618 24.169 20.1023 24.0481 19.5455 23.8061C18.9886 23.5642 18.5528 23.2211 18.2379 22.777C17.9231 22.3295 17.7491 21.7992 17.7159 21.1861H19.2571C19.2869 21.554 19.4063 21.8606 19.6151 22.1058C19.8272 22.3478 20.0973 22.5284 20.4254 22.6477C20.7569 22.7637 21.1198 22.8217 21.5142 22.8217C21.9484 22.8217 22.3345 22.7538 22.6726 22.6179C23.014 22.4787 23.2824 22.2865 23.478 22.0412C23.6735 21.7926 23.7713 21.5026 23.7713 21.1712C23.7713 20.8696 23.6851 20.6226 23.5128 20.4304C23.3438 20.2382 23.1134 20.0791 22.8217 19.9531C22.5334 19.8272 22.2069 19.7161 21.8423 19.62L20.6392 19.2919C19.8239 19.0698 19.1776 18.7434 18.7003 18.3125C18.2263 17.8816 17.9893 17.3116 17.9893 16.6023C17.9893 16.0156 18.1484 15.5036 18.4666 15.0661C18.7848 14.6286 19.2157 14.2888 19.7592 14.0469C20.3028 13.8016 20.916 13.679 21.5987 13.679C22.2881 13.679 22.8963 13.8 23.4233 14.0419C23.9536 14.2839 24.3712 14.617 24.6761 15.0412C24.9811 15.4621 25.1402 15.946 25.1534 16.4929H23.6719ZM31.8464 20.8331V16.3636H33.3379V24H31.8762V22.6776H31.7967C31.621 23.0852 31.3393 23.425 30.9515 23.6967C30.5671 23.9652 30.0881 24.0994 29.5147 24.0994C29.0242 24.0994 28.59 23.9917 28.2122 23.7763C27.8377 23.5575 27.5427 23.2344 27.3272 22.8068C27.1151 22.3793 27.0091 21.8506 27.0091 21.2209V16.3636H28.4956V21.0419C28.4956 21.5623 28.6397 21.9766 28.9281 22.2848C29.2164 22.593 29.591 22.7472 30.0517 22.7472C30.3301 22.7472 30.6068 22.6776 30.8819 22.5384C31.1603 22.3991 31.3907 22.1887 31.573 21.907C31.7586 21.6252 31.8497 21.2673 31.8464 20.8331ZM35.3352 24V16.3636H36.7621V17.6065H36.8565C37.0156 17.1856 37.2758 16.8575 37.6371 16.6222C37.9983 16.3835 38.4309 16.2642 38.9347 16.2642C39.4451 16.2642 39.8726 16.3835 40.2173 16.6222C40.5653 16.8608 40.8222 17.1889 40.9879 17.6065H41.0675C41.2498 17.1989 41.5398 16.8741 41.9375 16.6321C42.3352 16.3868 42.8092 16.2642 43.3594 16.2642C44.0521 16.2642 44.6172 16.4813 45.0547 16.9155C45.4955 17.3497 45.7159 18.0043 45.7159 18.8793V24H44.2294V19.0185C44.2294 18.5014 44.0885 18.1269 43.8068 17.8949C43.5251 17.6629 43.1887 17.5469 42.7976 17.5469C42.3137 17.5469 41.9375 17.696 41.669 17.9943C41.4006 18.2893 41.2663 18.6688 41.2663 19.1328V24H39.7848V18.924C39.7848 18.5097 39.6555 18.1766 39.397 17.9247C39.1385 17.6728 38.8021 17.5469 38.3878 17.5469C38.1061 17.5469 37.8459 17.6214 37.6072 17.7706C37.3719 17.9164 37.1813 18.1203 37.0355 18.3821C36.893 18.6439 36.8217 18.9472 36.8217 19.2919V24H35.3352ZM47.7083 24V16.3636H49.1351V17.6065H49.2296C49.3887 17.1856 49.6489 16.8575 50.0101 16.6222C50.3714 16.3835 50.8039 16.2642 51.3077 16.2642C51.8181 16.2642 52.2457 16.3835 52.5904 16.6222C52.9384 16.8608 53.1953 17.1889 53.361 17.6065H53.4405C53.6228 17.1989 53.9128 16.8741 54.3105 16.6321C54.7083 16.3868 55.1822 16.2642 55.7324 16.2642C56.4251 16.2642 56.9902 16.4813 57.4277 16.9155C57.8685 17.3497 58.089 18.0043 58.089 18.8793V24H56.6025V19.0185C56.6025 18.5014 56.4616 18.1269 56.1799 17.8949C55.8981 17.6629 55.5617 17.5469 55.1706 17.5469C54.6867 17.5469 54.3105 17.696 54.0421 17.9943C53.7736 18.2893 53.6394 18.6688 53.6394 19.1328V24H52.1578V18.924C52.1578 18.5097 52.0286 18.1766 51.7701 17.9247C51.5115 17.6728 51.1751 17.5469 50.7608 17.5469C50.4791 17.5469 50.2189 17.6214 49.9803 17.7706C49.745 17.9164 49.5544 18.1203 49.4086 18.3821C49.266 18.6439 49.1948 18.9472 49.1948 19.2919V24H47.7083ZM62.3036 24.169C61.8197 24.169 61.3822 24.0795 60.9911 23.9006C60.6 23.7183 60.2901 23.4548 60.0614 23.1101C59.8361 22.7654 59.7234 22.3428 59.7234 21.8423C59.7234 21.4115 59.8062 21.0568 59.9719 20.7784C60.1377 20.5 60.3614 20.2796 60.6431 20.1172C60.9248 19.9548 61.2397 19.8321 61.5877 19.7493C61.9357 19.6664 62.2904 19.6035 62.6516 19.5604C63.109 19.5073 63.4802 19.4643 63.7653 19.4311C64.0503 19.3946 64.2575 19.3366 64.3867 19.2571C64.516 19.1776 64.5806 19.0483 64.5806 18.8693V18.8345C64.5806 18.4003 64.458 18.0639 64.2127 17.8253C63.9708 17.5866 63.6095 17.4673 63.1289 17.4673C62.6284 17.4673 62.234 17.5784 61.9457 17.8004C61.6606 18.0192 61.4634 18.2628 61.354 18.5312L59.957 18.2131C60.1228 17.7491 60.3647 17.3745 60.6829 17.0895C61.0044 16.8011 61.3739 16.5923 61.7915 16.4631C62.2092 16.3305 62.6483 16.2642 63.109 16.2642C63.4139 16.2642 63.7371 16.3007 64.0785 16.3736C64.4232 16.4432 64.7447 16.5724 65.043 16.7614C65.3446 16.9503 65.5915 17.2204 65.7837 17.5717C65.976 17.9197 66.0721 18.3722 66.0721 18.929V24H64.6204V22.956H64.5607C64.4646 23.1482 64.3204 23.3371 64.1282 23.5227C63.936 23.7083 63.689 23.8625 63.3874 23.9851C63.0858 24.1077 62.7246 24.169 62.3036 24.169ZM62.6268 22.9759C63.0378 22.9759 63.3891 22.8946 63.6808 22.7322C63.9757 22.5698 64.1995 22.3577 64.3519 22.0959C64.5077 21.8307 64.5856 21.5473 64.5856 21.2457V20.2614C64.5326 20.3144 64.4298 20.3641 64.2773 20.4105C64.1282 20.4536 63.9575 20.4917 63.7653 20.5249C63.573 20.5547 63.3858 20.5829 63.2035 20.6094C63.0212 20.6326 62.8687 20.6525 62.7461 20.669C62.4577 20.7055 62.1942 20.7668 61.9556 20.853C61.7203 20.9392 61.5314 21.0634 61.3888 21.2259C61.2496 21.3849 61.18 21.5971 61.18 21.8622C61.18 22.2301 61.3159 22.5085 61.5877 22.6974C61.8595 22.883 62.2058 22.9759 62.6268 22.9759ZM68.052 24V16.3636H69.4888V17.5767H69.5684C69.7076 17.1657 69.9528 16.8426 70.3042 16.6072C70.6588 16.3686 71.0598 16.2493 71.5073 16.2493C71.6001 16.2493 71.7095 16.2526 71.8354 16.2592C71.9647 16.2659 72.0658 16.2741 72.1387 16.2841V17.706C72.079 17.6894 71.973 17.6712 71.8205 17.6513C71.668 17.6281 71.5156 17.6165 71.3631 17.6165C71.0118 17.6165 70.6986 17.6911 70.4235 17.8402C70.1517 17.986 69.9363 18.1899 69.7772 18.4517C69.6181 18.7102 69.5385 19.0052 69.5385 19.3366V24H68.052ZM74.5971 26.8636C74.3751 26.8636 74.1729 26.8454 73.9906 26.8089C73.8083 26.7758 73.6724 26.7393 73.5829 26.6996L73.9409 25.4815C74.2127 25.5545 74.4546 25.5859 74.6667 25.576C74.8788 25.5661 75.0661 25.4865 75.2285 25.3374C75.3942 25.1882 75.5401 24.9446 75.666 24.6065L75.85 24.0994L73.0559 16.3636H74.6468L76.5808 22.2898H76.6603L78.5943 16.3636H80.1902L77.0431 25.0192C76.8973 25.4169 76.7117 25.7533 76.4863 26.0284C76.2609 26.3068 75.9925 26.5156 75.6809 26.6548C75.3694 26.794 75.0081 26.8636 74.5971 26.8636Z" fill="#2E2E2E"/>
</svg>
