<svg width="58" height="58" viewBox="0 0 58 58" fill="none" xmlns="http://www.w3.org/2000/svg">
<path d="M6.77649 37.4028C6.77649 37.4028 7.11966 41.603 7.19941 42.9273C7.30574 44.7036 7.99207 46.6877 9.13757 48.0652C10.7543 50.0178 12.6587 50.7066 15.201 50.7114C18.1904 50.7162 39.9284 50.7162 42.9178 50.7114C45.4601 50.7066 47.3645 50.0178 48.9812 48.0652C50.1267 46.6877 50.813 44.7036 50.9218 42.9273C50.9991 41.603 51.3423 37.4028 51.3423 37.4028" stroke="#053AF9" stroke-width="1.5" stroke-linecap="round" stroke-linejoin="round"/>
<path d="M20.532 12.8796V11.983C20.532 9.03464 22.9197 6.64697 25.8681 6.64697H32.1079C35.0538 6.64697 37.4439 9.03464 37.4439 11.983L37.4463 12.8796" stroke="#053AF9" stroke-width="1.5" stroke-linecap="round" stroke-linejoin="round"/>
<path d="M28.9879 40.3059V37.1787" stroke="#053AF9" stroke-width="1.5" stroke-linecap="round" stroke-linejoin="round"/>
<path fill-rule="evenodd" clip-rule="evenodd" d="M6.64551 20.2735V28.6521C11.2807 31.7092 16.8342 33.8503 22.929 34.6986C23.6588 32.0378 26.0586 30.0876 28.9756 30.0876C31.8466 30.0876 34.2946 32.0378 34.9761 34.7227C41.0951 33.8745 46.6704 31.7333 51.3297 28.6521V20.2735C51.3297 16.1796 48.0358 12.8833 43.942 12.8833H14.0574C9.96359 12.8833 6.64551 16.1796 6.64551 20.2735Z" stroke="#053AF9" stroke-width="1.5" stroke-linecap="round" stroke-linejoin="round"/>
</svg>
