<svg width="165" height="32" viewBox="0 0 165 32" fill="none" xmlns="http://www.w3.org/2000/svg">
<g clip-path="url(#clip0_2544_19105)">
<path d="M22.9255 0H9.08022C6.673 -4.85822e-07 4.36428 0.95587 2.66157 2.6575C0.958866 4.35912 0.00152937 6.66723 0 9.07445V22.9198C0 25.328 0.956663 27.6376 2.65953 29.3405C4.36241 31.0433 6.672 32 9.08022 32H22.9255C25.3328 31.9985 27.6409 31.0411 29.3425 29.3384C31.0441 27.6357 32 25.327 32 22.9198V9.07445C32 6.66776 31.0439 4.35964 29.3421 2.65785C27.6404 0.956055 25.3322 0 22.9255 0ZM22.1121 19.92C22.1121 20.6533 21.9677 21.3794 21.6871 22.057C21.4064 22.7345 20.9951 23.3501 20.4765 23.8686C19.958 24.3872 19.3424 24.7985 18.6649 25.0792C17.9873 25.3598 17.2612 25.5042 16.5279 25.5042H8.72832C7.99353 25.5065 7.26551 25.3638 6.586 25.0841C5.90648 24.8045 5.28883 24.3935 4.76844 23.8748C4.24806 23.356 3.83518 22.7396 3.55346 22.061C3.27174 21.3823 3.12673 20.6548 3.12673 19.92V12.1031C3.12598 11.3693 3.26986 10.6425 3.55015 9.96433C3.83045 9.28615 4.24166 8.66986 4.76029 8.15071C5.27891 7.63155 5.89478 7.2197 6.57267 6.9387C7.25056 6.6577 7.97719 6.51307 8.71101 6.51307H16.5279C18.0094 6.5146 19.4298 7.10422 20.4769 8.1524C21.524 9.20057 22.1121 10.6215 22.1121 12.1031V19.92Z" fill="#053AF9"/>
<path d="M48.0717 13.8968C47.8139 13.4149 47.41 13.0271 46.9179 12.7892C46.1791 12.431 45.3473 12.3108 44.5373 12.4451C43.7273 12.5794 42.9788 12.9616 42.3951 13.5391C41.6648 14.3784 41.2885 15.4682 41.3452 16.5793C41.2781 17.7425 41.6695 18.8858 42.4355 19.7637C42.8352 20.1538 43.3108 20.4575 43.8328 20.656C44.3548 20.8545 44.9121 20.9435 45.4699 20.9175C46.2645 20.9444 47.0456 20.707 47.6909 20.2426C48.3338 19.7608 48.805 19.0854 49.0351 18.3157H44.4892V15.6563H52.2772V18.9849C52.0017 19.9013 51.538 20.7501 50.9157 21.4771C50.2597 22.2666 49.4386 22.9027 48.5101 23.3404C47.476 23.8303 46.3429 24.0751 45.1988 24.0558C43.8413 24.0779 42.5008 23.7522 41.3048 23.1097C40.1899 22.4856 39.2694 21.5652 38.6453 20.4502C38.0239 19.2535 37.6994 17.9249 37.6994 16.5764C37.6994 15.228 38.0239 13.8993 38.6453 12.7026C39.2632 11.583 40.1852 10.661 41.3048 10.0432C42.4903 9.38793 43.8272 9.05571 45.1815 9.07976C46.7575 9.02778 48.3098 9.47389 49.6178 10.3547C50.8278 11.2006 51.6858 12.4608 52.0291 13.8968H48.0717Z" fill="#0D0D0D"/>
<path d="M56.0676 11.0474C55.5002 11.0706 54.9453 10.8767 54.5158 10.5051C54.3278 10.3278 54.1793 10.1129 54.0799 9.87431C53.9805 9.63576 53.9325 9.37895 53.9389 9.1206C53.9303 8.86283 53.9774 8.60623 54.077 8.36829C54.1765 8.13036 54.3262 7.91669 54.5158 7.74184C54.9365 7.35194 55.4944 7.14451 56.0676 7.16495C56.3444 7.15555 56.6203 7.20176 56.8789 7.30085C57.1375 7.39994 57.3737 7.54989 57.5733 7.74184C57.7694 7.91303 57.9253 8.12533 58.03 8.36363C58.1347 8.60194 58.1856 8.8604 58.179 9.1206C58.1833 9.38133 58.1315 9.63993 58.0269 9.87883C57.9224 10.1177 57.7677 10.3313 57.5733 10.5051C57.1611 10.8749 56.621 11.0694 56.0676 11.0474ZM57.8445 12.2646V23.9582H54.262V12.2646H57.8445Z" fill="#0D0D0D"/>
<path d="M64.8829 12.0974C65.6329 12.08 66.3751 12.2527 67.0405 12.5993C67.6326 12.9001 68.1312 13.3569 68.4827 13.9203V12.2647H72.0652V23.9582C72.0781 24.9576 71.8547 25.9459 71.4133 26.8426C70.9935 27.7223 70.3152 28.4529 69.4692 28.9367C68.4761 29.4826 67.3538 29.7498 66.2213 29.7098C64.7191 29.7797 63.2367 29.3452 62.01 28.4752C61.4848 28.0865 61.0489 27.5899 60.7315 27.0187C60.4141 26.4476 60.2226 25.8152 60.1697 25.1639H63.7003C63.7556 25.3834 63.8546 25.5895 63.9914 25.7699C64.1282 25.9503 64.3 26.1013 64.4964 26.2138C64.9657 26.4904 65.5037 26.6284 66.0482 26.6119C66.3656 26.6241 66.6822 26.5727 66.9794 26.4607C67.2766 26.3488 67.5484 26.1785 67.7789 25.96C68.0237 25.6855 68.2094 25.3636 68.3245 25.0142C68.4397 24.6649 68.4817 24.2956 68.4481 23.9294V22.2737C68.0858 22.834 67.5903 23.2958 67.0059 23.6178C66.3405 23.9644 65.5983 24.1371 64.8483 24.1197C63.9346 24.121 63.039 23.8651 62.2638 23.3813C61.463 22.8568 60.8191 22.1252 60.4005 21.2641C59.9365 20.2679 59.7076 19.1784 59.7313 18.0797C59.7057 16.9882 59.9349 15.9058 60.4005 14.9184C60.8164 14.0617 61.4613 13.3369 62.2638 12.8243C63.0491 12.3359 63.9583 12.0836 64.8829 12.0974ZM68.4827 18.1086C68.5064 17.7238 68.4528 17.3383 68.325 16.9746C68.1971 16.611 67.9977 16.2767 67.7385 15.9914C67.5107 15.742 67.2323 15.5441 66.9219 15.4108C66.6115 15.2775 66.2763 15.2119 65.9386 15.2183C65.5979 15.2148 65.2601 15.2816 64.9465 15.4146C64.6328 15.5476 64.3499 15.744 64.1157 15.9914C63.8614 16.2748 63.6657 16.6058 63.5399 16.9652C63.4142 17.3246 63.3609 17.7053 63.383 18.0855C63.3449 18.8645 63.6072 19.6285 64.1157 20.22C64.3488 20.4692 64.6313 20.6672 64.9451 20.8013C65.259 20.9354 65.5973 21.0027 65.9386 20.9988C66.2769 21.0052 66.6126 20.9391 66.9231 20.8047C67.2336 20.6704 67.5117 20.471 67.7385 20.22C67.997 19.9354 68.196 19.602 68.3238 19.2394C68.4516 18.8768 68.5056 18.4923 68.4827 18.1086Z" fill="#0D0D0D"/>
<path d="M74.0497 16.58C74.0237 15.2283 74.3476 13.8928 74.99 12.7033C75.5924 11.5858 76.5009 10.6632 77.6091 10.0438C78.7796 9.3929 80.1005 9.06069 81.4396 9.08043C83.0454 9.03601 84.621 9.52268 85.9221 10.465C87.1711 11.3874 88.0538 12.7217 88.4142 14.232H84.4683C84.1991 13.6493 83.761 13.1608 83.2107 12.8302C82.4942 12.4213 81.6611 12.265 80.8451 12.3864C80.0291 12.5077 79.2775 12.8997 78.711 13.4994C78.0449 14.3872 77.6848 15.4672 77.6848 16.5771C77.6848 17.687 78.0449 18.767 78.711 19.6548C79.0433 20.034 79.4561 20.3343 79.9191 20.5339C80.3821 20.7334 80.8839 20.8273 81.3877 20.8086C82.028 20.8207 82.659 20.6549 83.2107 20.3298C83.7625 19.9984 84.201 19.5077 84.4683 18.9221H88.4027C88.0408 20.4334 87.1585 21.769 85.9105 22.695C84.6034 23.6225 83.0303 24.1003 81.4281 24.0565C80.0911 24.0764 78.7716 23.7505 77.5976 23.1104C76.4944 22.4845 75.5874 21.5635 74.9785 20.4509C74.3408 19.2621 74.0208 17.9287 74.0497 16.58Z" fill="#0D0D0D"/>
<path d="M95.9312 24.1196C94.8534 24.1329 93.7891 23.8792 92.8333 23.3812C91.9322 22.8989 91.1846 22.1734 90.6757 21.2871C90.1417 20.3121 89.8731 19.214 89.8969 18.1027C89.8728 16.9964 90.1478 15.9042 90.693 14.9413C91.2014 14.0407 91.9585 13.3057 92.8737 12.8241C93.8354 12.3429 94.8961 12.0923 95.9715 12.0923C97.047 12.0923 98.1077 12.3429 99.0694 12.8241C99.9846 13.3057 100.742 14.0407 101.25 14.9413C101.78 15.9148 102.058 17.0057 102.058 18.1142C102.058 19.2227 101.78 20.3136 101.25 21.2871C100.726 22.1838 99.955 22.9108 99.0291 23.3812C98.0727 23.8779 97.0087 24.1314 95.9312 24.1196ZM95.9312 21.0159C96.2562 21.0199 96.5784 20.9551 96.8766 20.8259C97.1749 20.6966 97.4424 20.5058 97.6618 20.266C97.9202 19.9724 98.1179 19.6307 98.2437 19.2604C98.3694 18.8901 98.4207 18.4986 98.3945 18.1084C98.4468 17.3244 98.1924 16.5508 97.6849 15.9509C97.4645 15.7117 97.1969 15.5209 96.899 15.3903C96.6012 15.2598 96.2795 15.1924 95.9542 15.1924C95.629 15.1924 95.3073 15.2598 95.0094 15.3903C94.7116 15.5209 94.444 15.7117 94.2236 15.9509C93.7223 16.5534 93.4742 17.3268 93.5313 18.1084C93.4805 18.8855 93.7188 19.654 94.2005 20.266C94.4168 20.5097 94.6838 20.7031 94.9827 20.8327C95.2817 20.9623 95.6054 21.0248 95.9312 21.0159Z" fill="#0D0D0D"/>
<path d="M111.069 12.138C111.678 12.1108 112.285 12.2165 112.849 12.4476C113.413 12.6787 113.919 13.0297 114.334 13.4763C115.204 14.485 115.647 15.7927 115.569 17.1223V23.9584H112.009V17.6126C112.051 16.9495 111.834 16.296 111.403 15.7897C110.962 15.3709 110.377 15.1375 109.768 15.1375C109.159 15.1375 108.574 15.3709 108.133 15.7897C107.709 16.2986 107.498 16.9518 107.544 17.6126V23.9584H103.962V12.2649H107.544V13.8167C107.918 13.2903 108.423 12.8707 109.009 12.5995C109.651 12.2886 110.356 12.1307 111.069 12.138Z" fill="#0D0D0D"/>
<path d="M125.179 12.1378C125.789 12.1113 126.397 12.2173 126.961 12.4483C127.526 12.6793 128.034 13.03 128.45 13.4761C129.318 14.486 129.76 15.7928 129.685 17.1221V23.9582H126.125V17.6124C126.165 16.9485 125.946 16.295 125.514 15.7895C125.073 15.3711 124.489 15.1379 123.881 15.1379C123.274 15.1379 122.689 15.3711 122.249 15.7895C121.818 16.2958 121.601 16.9493 121.643 17.6124V23.9582H118.06V12.2647H121.643V13.8165C122.019 13.2873 122.528 12.8672 123.12 12.5993C123.761 12.287 124.466 12.129 125.179 12.1378Z" fill="#0D0D0D"/>
<path d="M143.19 17.9183C143.188 18.2692 143.167 18.6197 143.126 18.9682H135.021C135.037 19.5923 135.284 20.1882 135.713 20.6412C136.13 21.0218 136.677 21.2282 137.242 21.2181C137.634 21.2447 138.025 21.1476 138.359 20.9407C138.693 20.7337 138.954 20.4273 139.105 20.0643H142.919C142.724 20.8266 142.359 21.5348 141.851 22.1354C141.335 22.7583 140.681 23.2538 139.942 23.5833C139.132 23.9429 138.254 24.1221 137.369 24.1083C136.305 24.1287 135.253 23.8786 134.311 23.3814C133.426 22.8984 132.697 22.1717 132.212 21.2873C131.694 20.3072 131.436 19.211 131.462 18.1029C131.434 16.9967 131.686 15.9016 132.194 14.9185C132.676 14.0332 133.403 13.3059 134.288 12.8244C135.234 12.3503 136.277 12.1035 137.334 12.1035C138.392 12.1035 139.435 12.3503 140.38 12.8244C141.247 13.2884 141.96 13.9938 142.434 14.855C142.949 15.7926 143.21 16.8487 143.19 17.9183ZM139.526 16.978C139.538 16.7023 139.487 16.4275 139.378 16.1739C139.27 15.9204 139.105 15.6944 138.898 15.5127C138.464 15.1296 137.901 14.9237 137.323 14.9358C136.767 14.9207 136.224 15.1072 135.794 15.4608C135.37 15.8478 135.103 16.3777 135.044 16.9491L139.526 16.978Z" fill="#0D0D0D"/>
<path d="M144.366 18.1088C144.339 17.0026 144.591 15.9075 145.099 14.9244C145.577 14.0424 146.298 13.3158 147.176 12.8303C148.115 12.3284 149.168 12.0762 150.233 12.0976C151.55 12.0525 152.843 12.4597 153.896 13.2514C154.914 14.0661 155.605 15.2184 155.846 16.4993H152.033C151.921 16.0976 151.675 15.7462 151.336 15.5029C150.998 15.2596 150.586 15.139 150.17 15.1609C149.864 15.1525 149.561 15.2185 149.287 15.3532C149.012 15.4878 148.775 15.6871 148.595 15.9339C148.168 16.5778 147.966 17.3441 148.018 18.1146C147.969 18.8901 148.172 19.6607 148.595 20.3125C148.777 20.5565 149.015 20.753 149.289 20.8855C149.563 21.0181 149.865 21.0827 150.17 21.074C150.587 21.0946 150.998 20.9727 151.337 20.7284C151.675 20.4842 151.921 20.132 152.033 19.7298H155.846C155.598 21.0015 154.907 22.144 153.896 22.9547C152.844 23.7493 151.55 24.1568 150.233 24.1084C149.169 24.1288 148.117 23.8787 147.176 23.3816C146.298 22.8961 145.577 22.1694 145.099 21.2875C144.593 20.3056 144.341 19.2129 144.366 18.1088Z" fill="#0D0D0D"/>
<path d="M164.274 20.9124V23.9584H162.451C161.357 24.0236 160.276 23.6872 159.411 23.0123C158.677 22.37 158.309 21.3278 158.309 19.8856V15.2358H156.884V12.2649H158.309V9.41504H161.886V12.2649H164.234V15.2358H161.886V19.9202C161.873 20.056 161.889 20.193 161.933 20.3223C161.977 20.4515 162.047 20.57 162.14 20.6701C162.381 20.8477 162.679 20.9299 162.976 20.9009L164.274 20.9124Z" fill="#0D0D0D"/>
</g>
<defs>
<clipPath id="clip0_2544_19105">
<rect width="164.269" height="32" fill="white"/>
</clipPath>
</defs>
</svg>
