<svg
      fill="none"
      height="32"
      viewBox="0 0 165 32"
      width="165"
      xmlns="http://www.w3.org/2000/svg"
    >
      <g clipPath="url(#clip0_1508_133762)">
        <path
          d="M22.9255 0H9.08022C6.673 -4.85822e-07 4.36428 0.95587 2.66157 2.6575C0.958866 4.35912 0.00152937 6.66723 0 9.07445V22.9198C0 25.328 0.956663 27.6376 2.65953 29.3405C4.36241 31.0433 6.672 32 9.08022 32H22.9255C25.3328 31.9985 27.6409 31.0411 29.3425 29.3384C31.0441 27.6357 32 25.327 32 22.9198V9.07445C32 6.66776 31.0439 4.35964 29.3421 2.65785C27.6404 0.956055 25.3322 0 22.9255 0ZM22.1121 19.92C22.1121 20.6533 21.9677 21.3794 21.6871 22.057C21.4064 22.7345 20.9951 23.3501 20.4765 23.8686C19.958 24.3872 19.3424 24.7985 18.6649 25.0792C17.9873 25.3598 17.2612 25.5042 16.5279 25.5042H8.72832C7.99353 25.5065 7.26551 25.3638 6.586 25.0841C5.90648 24.8045 5.28883 24.3935 4.76844 23.8748C4.24806 23.356 3.83518 22.7396 3.55346 22.061C3.27174 21.3823 3.12673 20.6548 3.12673 19.92V12.1031C3.12598 11.3693 3.26986 10.6425 3.55015 9.96433C3.83045 9.28615 4.24166 8.66986 4.76029 8.15071C5.27891 7.63155 5.89478 7.2197 6.57267 6.9387C7.25056 6.6577 7.97719 6.51307 8.71101 6.51307H16.5279C18.0094 6.5146 19.4298 7.10422 20.4769 8.1524C21.524 9.20057 22.1121 10.6215 22.1121 12.1031V19.92Z"
          fill="#053AF9"
        />
        <path
          d="M48.0715 13.8968C47.8137 13.4149 47.4097 13.0271 46.9177 12.7892C46.1789 12.431 45.3471 12.3108 44.5371 12.4451C43.727 12.5794 42.9786 12.9616 42.3949 13.5391C41.6646 14.3784 41.2882 15.4682 41.345 16.5793C41.2778 17.7425 41.6693 18.8858 42.4353 19.7637C42.8349 20.1538 43.3106 20.4575 43.8326 20.656C44.3546 20.8545 44.9118 20.9435 45.4697 20.9175C46.2643 20.9444 47.0454 20.707 47.6907 20.2426C48.3336 19.7608 48.8048 19.0854 49.0349 18.3157H44.489V15.6563H52.277V18.9849C52.0015 19.9013 51.5378 20.7501 50.9155 21.4771C50.2595 22.2666 49.4384 22.9027 48.5099 23.3404C47.4758 23.8303 46.3427 24.0751 45.1986 24.0558C43.8411 24.0779 42.5006 23.7522 41.3046 23.1097C40.1896 22.4856 39.2692 21.5652 38.6451 20.4502C38.0237 19.2535 37.6992 17.9249 37.6992 16.5764C37.6992 15.228 38.0237 13.8993 38.6451 12.7026C39.263 11.583 40.185 10.661 41.3046 10.0432C42.4901 9.38793 43.8269 9.05571 45.1813 9.07976C46.7573 9.02778 48.3096 9.47389 49.6175 10.3547C50.8276 11.2006 51.6855 12.4608 52.0289 13.8968H48.0715Z"
          fill="#0D0D0D"
        />
        <path
          d="M56.0672 11.0474C55.4998 11.0706 54.9449 10.8767 54.5154 10.5051C54.3274 10.3278 54.1789 10.1129 54.0795 9.87431C53.9801 9.63576 53.9321 9.37895 53.9385 9.1206C53.9299 8.86283 53.977 8.60623 54.0765 8.36829C54.1761 8.13036 54.3258 7.91669 54.5154 7.74184C54.936 7.35194 55.494 7.14451 56.0672 7.16495C56.344 7.15555 56.6199 7.20176 56.8785 7.30085C57.1371 7.39994 57.3732 7.54989 57.5729 7.74184C57.769 7.91303 57.9249 8.12533 58.0296 8.36363C58.1343 8.60194 58.1852 8.8604 58.1786 9.1206C58.1829 9.38133 58.131 9.63993 58.0265 9.87883C57.922 10.1177 57.7673 10.3313 57.5729 10.5051C57.1606 10.8749 56.6205 11.0694 56.0672 11.0474ZM57.844 12.2646V23.9582H54.2616V12.2646H57.844Z"
          fill="#0D0D0D"
        />
        <path
          d="M64.883 12.0974C65.633 12.08 66.3752 12.2527 67.0406 12.5993C67.6327 12.9001 68.1314 13.3569 68.4828 13.9203V12.2647H72.0653V23.9582C72.0782 24.9576 71.8548 25.9459 71.4134 26.8426C70.9936 27.7223 70.3154 28.4529 69.4693 28.9367C68.4762 29.4826 67.3539 29.7498 66.2214 29.7098C64.7192 29.7797 63.2368 29.3452 62.0101 28.4752C61.485 28.0865 61.049 27.5899 60.7316 27.0187C60.4142 26.4476 60.2227 25.8152 60.1699 25.1639H63.7004C63.7558 25.3834 63.8548 25.5895 63.9916 25.7699C64.1283 25.9503 64.3001 26.1013 64.4965 26.2138C64.9658 26.4904 65.5039 26.6284 66.0484 26.6119C66.3657 26.6241 66.6823 26.5727 66.9795 26.4607C67.2767 26.3488 67.5486 26.1785 67.779 25.96C68.0238 25.6855 68.2095 25.3636 68.3247 25.0142C68.4398 24.6649 68.4818 24.2956 68.4482 23.9294V22.2737C68.0859 22.834 67.5904 23.2958 67.006 23.6178C66.3406 23.9644 65.5984 24.1371 64.8484 24.1197C63.9347 24.121 63.0391 23.8651 62.264 23.3813C61.4631 22.8568 60.8192 22.1252 60.4006 21.2641C59.9367 20.2679 59.7077 19.1784 59.7314 18.0797C59.7059 16.9882 59.935 15.9058 60.4006 14.9184C60.8165 14.0617 61.4614 13.3369 62.264 12.8243C63.0492 12.3359 63.9584 12.0836 64.883 12.0974ZM68.4828 18.1086C68.5065 17.7238 68.4529 17.3383 68.3251 16.9746C68.1973 16.611 67.9978 16.2767 67.7386 15.9914C67.5108 15.742 67.2324 15.5441 66.922 15.4108C66.6117 15.2775 66.2765 15.2119 65.9387 15.2183C65.598 15.2148 65.2603 15.2816 64.9466 15.4146C64.6329 15.5476 64.3501 15.744 64.1158 15.9914C63.8615 16.2748 63.6658 16.6058 63.5401 16.9652C63.4143 17.3246 63.361 17.7053 63.3831 18.0855C63.345 18.8645 63.6073 19.6285 64.1158 20.22C64.3489 20.4692 64.6314 20.6672 64.9452 20.8013C65.2591 20.9354 65.5975 21.0027 65.9387 20.9988C66.277 21.0052 66.6127 20.9391 66.9232 20.8047C67.2337 20.6704 67.5118 20.471 67.7386 20.22C67.9971 19.9354 68.1961 19.602 68.3239 19.2394C68.4517 18.8768 68.5057 18.4923 68.4828 18.1086Z"
          fill="#0D0D0D"
        />
        <path
          d="M74.0496 16.58C74.0236 15.2283 74.3475 13.8928 74.99 12.7033C75.5923 11.5858 76.5009 10.6632 77.609 10.0438C78.7795 9.3929 80.1004 9.06069 81.4396 9.08043C83.0454 9.03601 84.621 9.52268 85.922 10.465C87.171 11.3874 88.0538 12.7217 88.4142 14.232H84.4682C84.1991 13.6493 83.7609 13.1608 83.2106 12.8302C82.4941 12.4213 81.661 12.265 80.845 12.3864C80.029 12.5077 79.2774 12.8997 78.7109 13.4994C78.0448 14.3872 77.6848 15.4672 77.6848 16.5771C77.6848 17.687 78.0448 18.767 78.7109 19.6548C79.0433 20.034 79.456 20.3343 79.919 20.5339C80.3821 20.7334 80.8838 20.8273 81.3877 20.8086C82.0279 20.8207 82.659 20.6549 83.2106 20.3298C83.7625 19.9984 84.2009 19.5077 84.4682 18.9221H88.4026C88.0407 20.4334 87.1584 21.769 85.9105 22.695C84.6033 23.6225 83.0302 24.1003 81.428 24.0565C80.091 24.0764 78.7715 23.7505 77.5975 23.1104C76.4943 22.4845 75.5874 21.5635 74.9784 20.4509C74.3407 19.2621 74.0208 17.9287 74.0496 16.58Z"
          fill="#0D0D0D"
        />
        <path
          d="M95.9312 24.1196C94.8535 24.1329 93.7892 23.8792 92.8333 23.3812C91.9322 22.8989 91.1847 22.1734 90.6758 21.2871C90.1417 20.3121 89.8732 19.214 89.897 18.1027C89.8728 16.9964 90.1479 15.9042 90.6931 14.9413C91.2015 14.0407 91.9585 13.3057 92.8737 12.8241C93.8355 12.3429 94.8961 12.0923 95.9716 12.0923C97.0471 12.0923 98.1077 12.3429 99.0695 12.8241C99.9847 13.3057 100.742 14.0407 101.25 14.9413C101.78 15.9148 102.058 17.0057 102.058 18.1142C102.058 19.2227 101.78 20.3136 101.25 21.2871C100.726 22.1838 99.9551 22.9108 99.0291 23.3812C98.0727 23.8779 97.0088 24.1314 95.9312 24.1196ZM95.9312 21.0159C96.2562 21.0199 96.5784 20.9551 96.8767 20.8259C97.1749 20.6966 97.4425 20.5058 97.6619 20.266C97.9202 19.9724 98.118 19.6307 98.2437 19.2604C98.3695 18.8901 98.4207 18.4986 98.3945 18.1084C98.4468 17.3244 98.1924 16.5508 97.685 15.9509C97.4645 15.7117 97.197 15.5209 96.8991 15.3903C96.6012 15.2598 96.2795 15.1924 95.9543 15.1924C95.6291 15.1924 95.3074 15.2598 95.0095 15.3903C94.7116 15.5209 94.4441 15.7117 94.2236 15.9509C93.7224 16.5534 93.4743 17.3268 93.5314 18.1084C93.4806 18.8855 93.7189 19.654 94.2006 20.266C94.4168 20.5097 94.6838 20.7031 94.9828 20.8327C95.2818 20.9623 95.6055 21.0248 95.9312 21.0159Z"
          fill="#0D0D0D"
        />
        <path
          d="M111.069 12.138C111.678 12.1108 112.285 12.2165 112.849 12.4476C113.413 12.6787 113.92 13.0297 114.334 13.4763C115.204 14.485 115.647 15.7927 115.569 17.1223V23.9584H112.01V17.6126C112.051 16.9495 111.834 16.296 111.404 15.7897C110.962 15.3709 110.377 15.1375 109.768 15.1375C109.16 15.1375 108.574 15.3709 108.133 15.7897C107.709 16.2986 107.498 16.9518 107.544 17.6126V23.9584H103.962V12.2649H107.544V13.8167C107.919 13.2903 108.424 12.8707 109.01 12.5995C109.651 12.2886 110.356 12.1307 111.069 12.138Z"
          fill="#0D0D0D"
        />
        <path
          d="M125.179 12.1378C125.789 12.1113 126.397 12.2173 126.962 12.4483C127.526 12.6793 128.034 13.03 128.45 13.4761C129.318 14.486 129.76 15.7928 129.685 17.1221V23.9582H126.125V17.6124C126.165 16.9485 125.946 16.295 125.514 15.7895C125.073 15.3711 124.489 15.1379 123.881 15.1379C123.274 15.1379 122.689 15.3711 122.249 15.7895C121.819 16.2958 121.601 16.9493 121.643 17.6124V23.9582H118.061V12.2647H121.643V13.8165C122.019 13.2873 122.529 12.8672 123.12 12.5993C123.761 12.287 124.466 12.129 125.179 12.1378Z"
          fill="#0D0D0D"
        />
        <path
          d="M143.19 17.9183C143.188 18.2692 143.167 18.6197 143.127 18.9682H135.021C135.038 19.5923 135.284 20.1882 135.714 20.6412C136.131 21.0218 136.678 21.2282 137.242 21.2181C137.635 21.2447 138.025 21.1476 138.359 20.9407C138.694 20.7337 138.955 20.4273 139.106 20.0643H142.919C142.725 20.8266 142.36 21.5348 141.852 22.1354C141.335 22.7583 140.682 23.2538 139.942 23.5833C139.133 23.9429 138.255 24.1221 137.369 24.1083C136.305 24.1287 135.253 23.8786 134.312 23.3814C133.426 22.8984 132.697 22.1717 132.212 21.2873C131.694 20.3072 131.436 19.211 131.462 18.1029C131.435 16.9967 131.687 15.9016 132.195 14.9185C132.676 14.0332 133.403 13.3059 134.289 12.8244C135.234 12.3503 136.277 12.1035 137.335 12.1035C138.392 12.1035 139.435 12.3503 140.381 12.8244C141.247 13.2884 141.961 13.9938 142.434 14.855C142.949 15.7926 143.21 16.8487 143.19 17.9183ZM139.527 16.978C139.538 16.7023 139.488 16.4275 139.379 16.1739C139.27 15.9204 139.106 15.6944 138.898 15.5127C138.464 15.1296 137.902 14.9237 137.323 14.9358C136.767 14.9207 136.224 15.1072 135.794 15.4608C135.37 15.8478 135.103 16.3777 135.044 16.9491L139.527 16.978Z"
          fill="#0D0D0D"
        />
        <path
          d="M144.366 18.1088C144.339 17.0026 144.591 15.9075 145.099 14.9244C145.577 14.0424 146.298 13.3158 147.176 12.8303C148.115 12.3284 149.168 12.0762 150.233 12.0976C151.55 12.0525 152.843 12.4597 153.896 13.2514C154.914 14.0661 155.606 15.2184 155.846 16.4993H152.033C151.921 16.0976 151.675 15.7462 151.336 15.5029C150.998 15.2596 150.586 15.139 150.17 15.1609C149.864 15.1525 149.561 15.2185 149.287 15.3532C149.013 15.4878 148.775 15.6871 148.595 15.9339C148.168 16.5778 147.966 17.3441 148.018 18.1146C147.97 18.8901 148.172 19.6607 148.595 20.3125C148.777 20.5565 149.015 20.753 149.289 20.8855C149.563 21.0181 149.865 21.0827 150.17 21.074C150.587 21.0946 150.998 20.9727 151.337 20.7284C151.676 20.4842 151.921 20.132 152.033 19.7298H155.846C155.598 21.0015 154.907 22.144 153.896 22.9547C152.845 23.7493 151.551 24.1568 150.233 24.1084C149.169 24.1288 148.117 23.8787 147.176 23.3816C146.298 22.8961 145.577 22.1694 145.099 21.2875C144.593 20.3056 144.342 19.2129 144.366 18.1088Z"
          fill="#0D0D0D"
        />
        <path
          d="M164.275 20.9124V23.9584H162.452C161.357 24.0236 160.276 23.6872 159.412 23.0123C158.677 22.37 158.31 21.3278 158.31 19.8856V15.2358H156.885V12.2649H158.31V9.41504H161.886V12.2649H164.234V15.2358H161.886V19.9202C161.874 20.056 161.889 20.193 161.933 20.3223C161.977 20.4515 162.048 20.57 162.14 20.6701C162.381 20.8477 162.679 20.9299 162.977 20.9009L164.275 20.9124Z"
          fill="#0D0D0D"
        />
      </g>
      <defs>
        <clipPath id="clip0_1508_133762">
          <rect fill="white" height="32" width="164.269" />
        </clipPath>
      </defs>
    </svg>